<svg width="20" height="20" viewBox="0 0 20 20" fill="none" xmlns="http://www.w3.org/2000/svg">
<path d="M13.192 9.16419C12.9997 9.16419 12.8116 9.22123 12.6517 9.32809C12.4918 9.43495 12.3671 9.58683 12.2935 9.76453C12.2199 9.94223 12.2007 10.1378 12.2382 10.3264C12.2757 10.5151 12.3683 10.6883 12.5043 10.8244C12.6403 10.9604 12.8136 11.053 13.0023 11.0905C13.1909 11.128 13.3865 11.1088 13.5642 11.0352C13.7419 10.9616 13.8937 10.8369 14.0006 10.677C14.1075 10.5171 14.1645 10.329 14.1645 10.1367C14.1645 9.87877 14.062 9.63141 13.8797 9.44903C13.6973 9.26665 13.4499 9.16419 13.192 9.16419ZM7.77533 10.1367C7.77533 9.94431 7.71827 9.75626 7.61138 9.59631C7.50448 9.43637 7.35255 9.31172 7.1748 9.23814C6.99705 9.16456 6.80147 9.14535 6.6128 9.18294C6.42413 9.22053 6.25085 9.31323 6.11487 9.44932C5.9789 9.58541 5.88634 9.75877 5.84892 9.94748C5.81149 10.1362 5.83086 10.3317 5.9046 10.5094C5.97833 10.6871 6.10311 10.8389 6.26314 10.9457C6.42318 11.0525 6.61129 11.1094 6.80366 11.1092C7.06144 11.109 7.30859 11.0064 7.49079 10.8241C7.67299 10.6417 7.77533 10.3945 7.77533 10.1367ZM12.0778 12.8367C11.8126 13.1219 11.4916 13.3494 11.1347 13.5052C10.7778 13.661 10.3927 13.7417 10.0033 13.7422C9.61385 13.7428 9.22848 13.6632 8.87115 13.5084C8.51381 13.3536 8.19214 13.127 7.92616 12.8425C7.78737 12.6705 7.5859 12.5606 7.3661 12.5371C7.14629 12.5135 6.92614 12.5783 6.75408 12.7171C6.58202 12.8559 6.47215 13.0574 6.44863 13.2772C6.42511 13.497 6.48987 13.7171 6.62866 13.8892C7.0507 14.367 7.56949 14.7496 8.15063 15.0117C8.73178 15.2737 9.36199 15.4093 9.9995 15.4093C10.637 15.4093 11.2672 15.2737 11.8484 15.0117C12.4295 14.7496 12.9483 14.367 13.3703 13.8892C13.5036 13.7173 13.5644 13.5001 13.5397 13.284C13.515 13.0678 13.4068 12.8699 13.2382 12.7325C13.0696 12.5951 12.8539 12.5291 12.6372 12.5485C12.4206 12.568 12.2201 12.6714 12.0787 12.8367H12.0778ZM10.0003 0.419189C8.10493 0.419189 6.25209 0.981242 4.67612 2.03427C3.10014 3.0873 1.87182 4.58401 1.14648 6.33514C0.421145 8.08627 0.231363 10.0132 0.601138 11.8721C0.970913 13.7311 1.88364 15.4387 3.22389 16.779C4.56414 18.1192 6.27173 19.0319 8.13071 19.4017C9.9897 19.7715 11.9166 19.5817 13.6677 18.8564C15.4188 18.131 16.9156 16.9027 17.9686 15.3267C19.0216 13.7508 19.5837 11.8979 19.5837 10.0025C19.5808 7.46175 18.5702 5.02585 16.7736 3.22925C14.977 1.43265 12.5411 0.422057 10.0003 0.419189ZM10.0003 17.9192C8.43456 17.9192 6.90395 17.4549 5.60207 16.585C4.30018 15.7151 3.28548 14.4787 2.68628 13.0321C2.08709 11.5855 1.93031 9.99374 2.23578 8.45806C2.54125 6.92237 3.29524 5.51176 4.4024 4.40459C5.50957 3.29743 6.92018 2.54344 8.45586 2.23797C9.99155 1.93251 11.5833 2.08928 13.0299 2.68848C14.4765 3.28767 15.7129 4.30237 16.5828 5.60426C17.4527 6.90615 17.917 8.43675 17.917 10.0025C17.9148 12.1015 17.08 14.1138 15.5958 15.598C14.1116 17.0822 12.0993 17.917 10.0003 17.9192Z" fill="#737373"/>
</svg>
