<svg width="21" height="21" viewBox="0 0 21 21" fill="none" xmlns="http://www.w3.org/2000/svg">
<path d="M14.4633 3.36251C15.5955 3.4251 16.657 3.93262 17.4166 4.77447C18.1762 5.61632 18.5722 6.72427 18.5184 7.85686C18.5184 10.5028 16.2342 12.1281 14.0422 14.0773C11.8785 16.0092 10.7132 17.0652 10.3359 17.309C9.92506 17.0428 8.49011 15.7388 6.62966 14.0773C4.42813 12.1204 2.15339 10.4796 2.15339 7.85686C2.09961 6.72427 2.49567 5.61632 3.25524 4.77447C4.01481 3.93262 5.07633 3.4251 6.20847 3.36251C6.83564 3.3435 7.45701 3.48756 8.01183 3.78059C8.56665 4.07363 9.03594 4.50562 9.37382 5.03433C10.0973 6.04637 10.2179 6.55283 10.3385 6.55283C10.4591 6.55283 10.5779 6.04637 11.2946 5.03174C11.6305 4.50059 12.1 4.06689 12.656 3.77397C13.2121 3.48105 13.8353 3.33917 14.4633 3.36251ZM14.4633 1.63987C13.6812 1.61483 12.9035 1.76656 12.1881 2.08375C11.4728 2.40095 10.8382 2.87544 10.3316 3.4719C9.82547 2.87718 9.19218 2.40378 8.47852 2.08668C7.76486 1.76958 6.98907 1.61689 6.20847 1.63987C4.61923 1.70202 3.11925 2.39093 2.03654 3.55595C0.953831 4.72098 0.376485 6.26733 0.430753 7.85686C0.430753 10.9662 2.62711 12.8758 4.75026 14.7216C4.99402 14.9335 5.24035 15.1471 5.48497 15.365L6.36954 16.1557C7.33425 17.0736 8.34563 17.9413 9.39966 18.7551C9.67854 18.9357 10.0037 19.0318 10.3359 19.0318C10.6681 19.0318 10.9933 18.9357 11.2722 18.7551C12.3597 17.9164 13.4022 17.0208 14.3953 16.0721L15.1894 15.3624C15.4418 15.1384 15.6976 14.9154 15.9517 14.6957C17.962 12.9516 20.2411 10.9748 20.2411 7.85686C20.2953 6.26733 19.718 4.72098 18.6353 3.55595C17.5526 2.39093 16.0526 1.70202 14.4633 1.63987Z" fill="#262626"/>
</svg>
